<svg width="18" height="21" viewBox="0 0 18 21" fill="none" xmlns="http://www.w3.org/2000/svg">
<path d="M9 10.5C10.364 10.5 11.6721 9.96538 12.6365 9.01373C13.601 8.06209 14.1429 6.77137 14.1429 5.42554C14.1429 4.07971 13.601 2.789 12.6365 1.83735C11.6721 0.885704 10.364 0.351074 9 0.351074C7.63603 0.351074 6.32792 0.885704 5.36345 1.83735C4.39898 2.789 3.85714 4.07971 3.85714 5.42554C3.85714 6.77137 4.39898 8.06209 5.36345 9.01373C6.32792 9.96538 7.63603 10.5 9 10.5ZM7.16384 12.4029C3.20625 12.4029 0 15.5665 0 19.4715C0 20.1217 0.534375 20.6489 1.1933 20.6489H16.8067C17.4656 20.6489 18 20.1217 18 19.4715C18 15.5665 14.7937 12.4029 10.8362 12.4029H7.16384Z" fill="white"/>
</svg>
