<svg width="18" height="19" viewBox="0 0 18 19" fill="none" xmlns="http://www.w3.org/2000/svg">
<path d="M9.97926 1.29343C9.7986 0.914186 9.41683 0.672852 8.99755 0.672852C8.57828 0.672852 8.19991 0.914186 8.01584 1.29343L5.82403 5.85464L0.929098 6.58554C0.52005 6.6476 0.179178 6.9372 0.053055 7.33367C-0.0730679 7.73015 0.0291938 8.168 0.322344 8.46105L3.87424 12.0156L3.03569 17.0388C2.96752 17.4525 3.13795 17.8731 3.47542 18.1179C3.81288 18.3626 4.25942 18.3937 4.62757 18.1972L9.00096 15.8355L13.3744 18.1972C13.7425 18.3937 14.189 18.3661 14.5265 18.1179C14.864 17.8696 15.0344 17.4525 14.9662 17.0388L14.1243 12.0156L17.6762 8.46105C17.9693 8.168 18.075 7.73015 17.9455 7.33367C17.8159 6.9372 17.4785 6.6476 17.0694 6.58554L12.1711 5.85464L9.97926 1.29343Z" fill="white"/>
</svg>
