<svg width="18" height="18" viewBox="0 0 18 18" fill="none" xmlns="http://www.w3.org/2000/svg">
<path d="M17.9953 8.9825C17.9953 9.55192 17.5264 9.99797 16.995 9.99797H15.9948L16.0166 15.0658C16.0166 15.1512 16.0104 15.2366 16.001 15.322V15.8345C16.001 16.5336 15.4415 17.0999 14.7507 17.0999H14.2506C14.2162 17.0999 14.1818 17.0999 14.1474 17.0967C14.1036 17.0999 14.0599 17.0999 14.0161 17.0999L13.0002 17.0967H12.25C11.5592 17.0967 10.9997 16.5305 10.9997 15.8314V15.0721V13.0475C10.9997 12.4876 10.5527 12.0352 9.99946 12.0352H7.99894C7.44567 12.0352 6.99868 12.4876 6.99868 13.0475V15.0721V15.8314C6.99868 16.5305 6.43917 17.0967 5.74836 17.0967H4.99817H4.00103C3.95415 17.0967 3.90726 17.0936 3.86037 17.0904C3.82286 17.0936 3.78535 17.0967 3.74784 17.0967H3.24771C2.55691 17.0967 1.99739 16.5305 1.99739 15.8314V12.2883C1.99739 12.2598 1.99739 12.2282 2.00052 12.1997V9.9948H1.00026C0.437613 9.9948 0 9.55192 0 8.97934C0 8.69463 0.0937742 8.44155 0.312581 8.22011L8.32403 1.15298C8.54283 0.931537 8.7929 0.899902 9.01171 0.899902C9.23051 0.899902 9.48058 0.963171 9.66813 1.12134L17.6514 8.22328C17.9015 8.44472 18.0265 8.69779 17.9953 8.9825Z" fill="white"/>
</svg>
