<svg width="18" height="18" viewBox="0 0 18 18" fill="none" xmlns="http://www.w3.org/2000/svg">
<path d="M2.57143 0C1.15313 0 0 1.15313 0 2.57143V15.4286C0 16.8469 1.15313 18 2.57143 18H15.4286C16.8469 18 18 16.8469 18 15.4286V2.57143C18 1.15313 16.8469 0 15.4286 0H2.57143ZM5.14286 7.71429C5.85402 7.71429 6.42857 8.28884 6.42857 9V12.8571C6.42857 13.5683 5.85402 14.1429 5.14286 14.1429C4.4317 14.1429 3.85714 13.5683 3.85714 12.8571V9C3.85714 8.28884 4.4317 7.71429 5.14286 7.71429ZM7.71429 5.14286C7.71429 4.4317 8.28884 3.85714 9 3.85714C9.71116 3.85714 10.2857 4.4317 10.2857 5.14286V12.8571C10.2857 13.5683 9.71116 14.1429 9 14.1429C8.28884 14.1429 7.71429 13.5683 7.71429 12.8571V5.14286ZM12.8571 10.2857C13.5683 10.2857 14.1429 10.8603 14.1429 11.5714V12.8571C14.1429 13.5683 13.5683 14.1429 12.8571 14.1429C12.146 14.1429 11.5714 13.5683 11.5714 12.8571V11.5714C11.5714 10.8603 12.146 10.2857 12.8571 10.2857Z" fill="white"/>
</svg>
