<svg width="20" height="17" viewBox="0 0 20 17" fill="none" xmlns="http://www.w3.org/2000/svg">
<path d="M8.51172 2.80424L13.3086 7.46406C13.5898 7.73728 13.75 8.11295 13.75 8.5C13.75 8.88705 13.5898 9.26272 13.3086 9.53594L8.51172 14.1958C8.26172 14.4386 7.92578 14.5714 7.57422 14.5714C6.84375 14.5714 6.25 13.9946 6.25 13.285V10.9286H1.25C0.558594 10.9286 0 10.3859 0 9.71429V7.28571C0 6.61406 0.558594 6.07143 1.25 6.07143H6.25V3.71496C6.25 3.00536 6.84375 2.42857 7.57422 2.42857C7.92578 2.42857 8.26172 2.56518 8.51172 2.80424ZM13.75 14.5714H16.25C16.9414 14.5714 17.5 14.0288 17.5 13.3571V3.64286C17.5 2.97121 16.9414 2.42857 16.25 2.42857H13.75C13.0586 2.42857 12.5 1.88594 12.5 1.21429C12.5 0.542634 13.0586 0 13.75 0H16.25C18.3203 0 20 1.6317 20 3.64286V13.3571C20 15.3683 18.3203 17 16.25 17H13.75C13.0586 17 12.5 16.4574 12.5 15.7857C12.5 15.1141 13.0586 14.5714 13.75 14.5714Z" fill="white"/>
</svg>
