<svg width="18" height="16" viewBox="0 0 18 16" fill="none" xmlns="http://www.w3.org/2000/svg">
<path d="M2.25 0.125C1.00898 0.125 0 1.13398 0 2.375V13.625C0 14.866 1.00898 15.875 2.25 15.875H15.75C16.991 15.875 18 14.866 18 13.625V5.75C18 4.50898 16.991 3.5 15.75 3.5H2.8125C2.50312 3.5 2.25 3.24688 2.25 2.9375C2.25 2.62813 2.50312 2.375 2.8125 2.375H15.75C16.3723 2.375 16.875 1.87227 16.875 1.25C16.875 0.627734 16.3723 0.125 15.75 0.125H2.25ZM14.625 8.5625C14.9234 8.5625 15.2095 8.68103 15.4205 8.89201C15.6315 9.10298 15.75 9.38913 15.75 9.6875C15.75 9.98587 15.6315 10.272 15.4205 10.483C15.2095 10.694 14.9234 10.8125 14.625 10.8125C14.3266 10.8125 14.0405 10.694 13.8295 10.483C13.6185 10.272 13.5 9.98587 13.5 9.6875C13.5 9.38913 13.6185 9.10298 13.8295 8.89201C14.0405 8.68103 14.3266 8.5625 14.625 8.5625Z" fill="white"/>
</svg>
