<svg width="14" height="14" viewBox="0 0 14 14" fill="none" xmlns="http://www.w3.org/2000/svg">
<path d="M11.3756 5.68667C11.3756 6.94156 10.9681 8.10077 10.2818 9.04125L13.7436 12.5052C14.0855 12.8469 14.0855 13.4019 13.7436 13.7437C13.4018 14.0854 12.8467 14.0854 12.5049 13.7437L9.04302 10.2797C8.10235 10.9687 6.94292 11.3733 5.68778 11.3733C2.54583 11.3733 0 8.828 0 5.68667C0 2.54533 2.54583 0 5.68778 0C8.82973 0 11.3756 2.54533 11.3756 5.68667ZM5.68778 9.62359C6.20488 9.62359 6.71692 9.52176 7.19467 9.32391C7.67241 9.12606 8.1065 8.83607 8.47215 8.47049C8.8378 8.10491 9.12784 7.67091 9.32573 7.19326C9.52362 6.71561 9.62547 6.20367 9.62547 5.68667C9.62547 5.16966 9.52362 4.65772 9.32573 4.18007C9.12784 3.70242 8.8378 3.26842 8.47215 2.90284C8.1065 2.53726 7.67241 2.24727 7.19467 2.04942C6.71692 1.85158 6.20488 1.74974 5.68778 1.74974C5.17067 1.74974 4.65863 1.85158 4.18089 2.04942C3.70315 2.24727 3.26906 2.53726 2.90341 2.90284C2.53776 3.26842 2.24771 3.70242 2.04982 4.18007C1.85194 4.65772 1.75009 5.16966 1.75009 5.68667C1.75009 6.20367 1.85194 6.71561 2.04982 7.19326C2.24771 7.67091 2.53776 8.10491 2.90341 8.47049C3.26906 8.83607 3.70315 9.12606 4.18089 9.32391C4.65863 9.52176 5.17067 9.62359 5.68778 9.62359Z" fill="#313131"/>
</svg>
