<svg width="18" height="18" viewBox="0 0 18 18" fill="none" xmlns="http://www.w3.org/2000/svg">
<path d="M9.97926 0.620574C9.7986 0.241334 9.41683 0 8.99755 0C8.57828 0 8.19991 0.241334 8.01584 0.620574L5.82403 5.18179L0.929098 5.91269C0.52005 5.97474 0.179178 6.26435 0.053055 6.66082C-0.0730679 7.0573 0.0291938 7.49515 0.322344 7.7882L3.87424 11.3427L3.03569 16.3659C2.96752 16.7796 3.13795 17.2002 3.47542 17.445C3.81288 17.6898 4.25942 17.7208 4.62756 17.5243L9.00096 15.1627L13.3744 17.5243C13.7425 17.7208 14.189 17.6932 14.5265 17.445C14.864 17.1968 15.0344 16.7796 14.9662 16.3659L14.1243 11.3427L17.6762 7.7882C17.9693 7.49515 18.075 7.0573 17.9455 6.66082C17.8159 6.26435 17.4785 5.97474 17.0694 5.91269L12.1711 5.18179L9.97926 0.620574Z" fill="#FFEA00"/>
</svg>
