<svg width="10" height="17" viewBox="0 0 10 17" fill="none" xmlns="http://www.w3.org/2000/svg">
<path d="M5.7063 0.292854C5.31584 -0.0976181 4.68173 -0.0976181 4.29127 0.292854L0.292933 4.29129C0.00555325 4.57868 -0.0787866 5.00664 0.0773983 5.38149C0.233583 5.75634 0.595932 6 1.00201 6H8.99868C9.40164 6 9.76711 5.75634 9.92329 5.38149C10.0795 5.00664 9.99201 4.57868 9.70776 4.29129L5.70942 0.292854H5.7063Z" fill="#313131"/>
<path d="M4.2937 16.7071C4.68416 17.0976 5.31827 17.0976 5.70873 16.7071L9.70707 12.7087C9.99445 12.4213 10.0788 11.9934 9.9226 11.6185C9.76642 11.2437 9.40407 11 8.99799 11L1.00132 11C0.598364 11 0.232892 11.2437 0.0767064 11.6185C-0.0794778 11.9934 0.00798552 12.4213 0.292241 12.7087L4.29058 16.7071L4.2937 16.7071Z" fill="#313131"/>
</svg>
