<svg width="18" height="18" viewBox="0 0 18 18" fill="none" xmlns="http://www.w3.org/2000/svg">
<path d="M8.99707 0.5C9.19469 0.5 9.3781 0.599261 9.48633 0.761719L9.52832 0.835938V0.836914L11.7207 5.39844L11.835 5.63672L12.0977 5.67676L16.9941 6.40625V6.40723C17.1855 6.43625 17.3518 6.55847 17.4385 6.73633L17.4697 6.81641C17.5318 7.00651 17.4954 7.21479 17.3779 7.37109L17.3223 7.43457L13.7705 10.9893L13.5889 11.1719L13.6309 11.4258L14.4727 16.4482C14.5051 16.647 14.4377 16.8476 14.2959 16.9863L14.2305 17.042C14.0518 17.1734 13.8129 17.1909 13.6113 17.084H13.6123L9.23828 14.7227L9.00098 14.5947L8.76367 14.7227L4.38965 17.084C4.19092 17.189 3.95065 17.1721 3.76855 17.04C3.58708 16.9082 3.4919 16.6775 3.5293 16.4482L4.36719 11.4248L4.41016 11.1709L4.22754 10.9893L0.675781 7.43457C0.518052 7.27687 0.458568 7.03505 0.529297 6.8125C0.597568 6.59788 0.782645 6.44088 1.00391 6.40723L1.00293 6.40625L5.89746 5.67676L6.16016 5.63672L6.27441 5.39844L8.46582 0.838867C8.56807 0.628296 8.77374 0.500184 8.99707 0.5Z" stroke="#7F7F7F"/>
</svg>
